<?xml version="1.0" encoding="utf-8"?>
<!-- Generator: Adobe Illustrator 24.3.0, SVG Export Plug-In . SVG Version: 6.00 Build 0)  -->
<svg version="1.1" id="Layer_1" xmlns="http://www.w3.org/2000/svg" xmlns:xlink="http://www.w3.org/1999/xlink" x="0px" y="0px"
	 viewBox="0 0 425.2 538.58" style="enable-background:new 0 0 425.2 538.58;" xml:space="preserve">
<style type="text/css">
	.st0{fill:#FFFFFF;stroke:#FFFFFF;stroke-miterlimit:10;}
</style>
<g>
	<g>
		<path class="st0" d="M366.04,130.52c-27.49,0-49.85,22.37-49.85,49.86c0,27.48,22.36,49.85,49.85,49.85
			c27.49,0,49.86-22.37,49.86-49.85C415.9,152.89,393.53,130.52,366.04,130.52z M366.04,223.66c-23.86,0-43.28-19.42-43.28-43.27
			c0-23.87,19.42-43.28,43.28-43.28c23.87,0,43.28,19.41,43.28,43.28C409.32,204.24,389.91,223.66,366.04,223.66z"/>
		<path class="st0" d="M97.14,210.02c-16.09,16.09-41.78,16.81-58.77,2.21l63.54-63.54l-4.65-4.65l-63.54,63.55
			c-14.6-16.99-13.88-42.68,2.21-58.77c13.35-13.35,33.3-16.1,49.42-8.32l2.96-5.91c-18.58-9-41.63-5.82-57.03,9.58
			c-19.44,19.44-19.43,51.06,0.01,70.5c19.43,19.43,51.06,19.44,70.5,0c15.41-15.41,18.59-38.49,9.55-57.08l-5.87,3.02
			C113.23,176.72,110.48,196.67,97.14,210.02z"/>
		<path class="st0" d="M269.63,130.64v-0.11h-6.57v0.11c-25.94,1.71-46.54,23.33-46.57,49.69c-0.02-21.79-14.08-40.33-33.6-47.07
			l-2.02,6.3c16.88,5.9,29.05,21.95,29.05,40.83c0,23.86-19.42,43.27-43.28,43.27c-23.87,0-43.27-19.42-43.27-43.27
			c0-18.88,12.17-34.93,29.06-40.84l-2.08-6.26c-19.51,6.77-33.55,25.32-33.55,47.1c0,27.48,22.36,49.85,49.85,49.85
			c27.47,0,49.83-22.34,49.85-49.8c0.02,21.78,14.09,40.32,33.6,47.07l2.02-6.3c-16.89-5.9-29.05-21.94-29.05-40.82
			c0-22.75,17.67-41.43,40-43.11v89.86h6.57v-89.86c22.33,1.69,39.99,20.35,39.99,43.11c0,18.89-12.17,34.93-29.06,40.83l2.08,6.28
			c19.5-6.77,33.55-25.32,33.55-47.1C316.19,153.99,295.58,132.35,269.63,130.64z"/>
	</g>
	<g>
		<path class="st0" d="M17.09,258.93v-16.26h9.14v1.7H19.1v5.42h5.89v1.7H19.1v5.74h7.34v1.7H17.09z"/>
		<path class="st0" d="M78.23,257.89c-1.2,0.99-2.71,1.5-4.46,1.5c-1.75,0-3.27-0.52-4.48-1.5c-1.35-1.11-1.9-2.41-1.9-4.53v-10.69
			h2.02v10.08c0,2.02,0.15,2.59,0.93,3.45c0.81,0.91,2,1.41,3.4,1.41c1.4,0,2.59-0.49,3.4-1.41c0.79-0.86,0.93-1.43,0.93-3.45
			v-10.08h2.02v10.69C80.1,255.53,79.58,256.79,78.23,257.89z"/>
		<path class="st0" d="M127.46,244.37v14.56h-2.02v-14.56h-5.42v-1.7h12.86v1.7H127.46z"/>
		<path class="st0" d="M179.96,259.25c-4.73,0-8.18-3.55-8.18-8.45c0-4.88,3.45-8.42,8.18-8.42s8.15,3.54,8.15,8.42
			C188.11,255.7,184.69,259.25,179.96,259.25z M179.96,244.15c-3.28,0-5.96,3.01-5.96,6.65c0,3.67,2.69,6.67,5.96,6.67
			c3.25,0,5.94-3,5.94-6.67C185.89,247.16,183.21,244.15,179.96,244.15z"/>
		<path class="st0" d="M255.81,252.97c-0.64,0-1.08-0.05-2.51-0.2v6.16h-2.02v-16.26h5.1c1.97,0,3.05,0.35,3.97,1.28
			c0.84,0.86,1.26,2,1.26,3.52C261.6,250.87,259.38,252.97,255.81,252.97z M258.59,245.06c-0.5-0.49-1.21-0.69-2.51-0.69h-2.78v6.7
			c1.13,0.12,1.6,0.15,2.17,0.15c0.91,0,1.58-0.1,2.12-0.32c1.18-0.49,1.92-1.78,1.92-3.3C259.5,246.54,259.19,245.65,258.59,245.06
			z"/>
		<path class="st0" d="M302.42,258.93v-16.26h2.02v14.56h7.27v1.7H302.42z"/>
		<path class="st0" d="M362.49,257.89c-1.21,0.99-2.71,1.5-4.46,1.5c-1.75,0-3.28-0.52-4.48-1.5c-1.36-1.11-1.9-2.41-1.9-4.53
			v-10.69h2.02v10.08c0,2.02,0.15,2.59,0.94,3.45c0.81,0.91,2,1.41,3.4,1.41c1.4,0,2.59-0.49,3.4-1.41
			c0.79-0.86,0.93-1.43,0.93-3.45v-10.08h2.02v10.69C364.36,255.53,363.84,256.79,362.49,257.89z"/>
		<path class="st0" d="M414.96,245.43c-0.84-0.49-1.18-0.66-1.7-0.84c-0.62-0.2-1.6-0.34-2.24-0.34c-1.85,0-3.11,0.91-3.11,2.29
			c0,1.21,0.72,1.82,4.02,3.57c1.11,0.59,1.97,1.13,2.56,1.65c0.79,0.66,1.25,1.77,1.25,2.96c0,2.78-2.07,4.53-5.34,4.53
			c-1.11,0-2.14-0.2-3.01-0.54c-0.62-0.25-1.04-0.49-2.1-1.21l1.04-1.6c0.91,0.61,1.31,0.84,1.87,1.06c0.71,0.27,1.5,0.42,2.34,0.42
			c1.92,0,3.08-0.91,3.08-2.46c0-0.47-0.07-0.86-0.25-1.16c-0.27-0.49-0.74-0.96-1.38-1.33c-0.27-0.15-1.18-0.62-2.71-1.45
			c-2.44-1.3-3.47-2.59-3.47-4.26c0-2.59,2.14-4.31,5.37-4.31c0.93,0,1.9,0.12,2.73,0.39c0.66,0.22,1.06,0.42,1.97,0.96
			L414.96,245.43z"/>
	</g>
</g>
</svg>
