<?xml version="1.0" encoding="utf-8"?>
<!-- Generator: Adobe Illustrator 24.2.3, SVG Export Plug-In . SVG Version: 6.00 Build 0)  -->
<svg version="1.1" id="Layer_1" xmlns="http://www.w3.org/2000/svg" xmlns:xlink="http://www.w3.org/1999/xlink" x="0px" y="0px"
	 viewBox="0 0 391.18 130.39" style="enable-background:new 0 0 391.18 130.39;" xml:space="preserve">
<style type="text/css">
	.st0{fill:#FFFFFF;}
</style>
<g>
	<g>
		<path class="st0" d="M341.26,2.96c-26.74,0-48.5,21.76-48.5,48.51c0,26.74,21.76,48.49,48.5,48.49c26.75,0,48.5-21.76,48.5-48.49
			C389.76,24.72,368.01,2.96,341.26,2.96z M341.26,93.57c-23.21,0-42.11-18.89-42.11-42.1c0-23.22,18.89-42.11,42.11-42.11
			c23.22,0,42.1,18.88,42.1,42.11C383.36,74.68,364.48,93.57,341.26,93.57z"/>
		<path class="st0" d="M79.66,80.3c-15.65,15.65-40.65,16.35-57.17,2.15l61.82-61.82l-4.52-4.52L17.97,77.93
			C3.77,61.4,4.47,36.41,20.12,20.75c12.99-12.99,32.4-15.66,48.07-8.1l2.88-5.75C53-1.85,30.58,1.25,15.6,16.23
			C-3.31,35.14-3.31,65.91,15.6,84.82c18.9,18.9,49.67,18.91,68.58,0c14.99-14.99,18.09-37.45,9.29-55.53l-5.71,2.94
			C95.32,47.9,92.64,67.31,79.66,80.3z"/>
		<path class="st0" d="M247.46,3.07V2.96h-6.39v0.11c-25.24,1.66-45.27,22.7-45.3,48.34c-0.02-21.19-13.7-39.23-32.69-45.79
			l-1.96,6.13c16.42,5.74,28.26,21.35,28.26,39.72c0,23.21-18.89,42.1-42.11,42.1c-23.22,0-42.1-18.89-42.1-42.1
			c0-18.37,11.84-33.98,28.27-39.73l-2.02-6.09c-18.98,6.58-32.64,24.63-32.64,45.82c0,26.74,21.76,48.49,48.5,48.49
			c26.73,0,48.47-21.73,48.5-48.45c0.02,21.18,13.71,39.22,32.69,45.79l1.97-6.13c-16.43-5.74-28.27-21.35-28.27-39.71
			c0-22.13,17.19-40.3,38.91-41.94v87.42h6.39V9.52c21.72,1.65,38.91,19.8,38.91,41.94c0,18.37-11.84,33.98-28.27,39.72l2.02,6.1
			c18.98-6.59,32.64-24.63,32.64-45.82C292.76,25.8,272.71,4.74,247.46,3.07z"/>
	</g>
	<g>
		<path class="st0" d="M1.78,127.88v-15.82h8.89v1.65H3.75v5.27h5.73v1.65H3.75v5.58h7.14v1.66H1.78z"/>
		<path class="st0" d="M61.27,126.87c-1.17,0.96-2.63,1.46-4.34,1.46c-1.7,0-3.19-0.5-4.36-1.46c-1.32-1.08-1.85-2.35-1.85-4.41
			v-10.4h1.97v9.8c0,1.96,0.14,2.52,0.91,3.35c0.79,0.89,1.94,1.37,3.31,1.37c1.37,0,2.52-0.48,3.31-1.37
			c0.77-0.84,0.91-1.39,0.91-3.35v-9.8h1.97v10.4C63.09,124.57,62.58,125.8,61.27,126.87z"/>
		<path class="st0" d="M109.16,113.72v14.16h-1.96v-14.16h-5.28v-1.65h12.51v1.65H109.16z"/>
		<path class="st0" d="M160.23,128.19c-4.6,0-7.96-3.45-7.96-8.22c0-4.75,3.36-8.19,7.96-8.19c4.6,0,7.93,3.45,7.93,8.19
			C168.16,124.74,164.83,128.19,160.23,128.19z M160.23,113.5c-3.19,0-5.8,2.93-5.8,6.47c0,3.57,2.61,6.49,5.8,6.49
			c3.16,0,5.77-2.92,5.77-6.49C166.01,116.43,163.39,113.5,160.23,113.5z"/>
		<path class="st0" d="M234.02,122.08c-0.62,0-1.05-0.05-2.44-0.19v5.99h-1.96v-15.82h4.96c1.92,0,2.97,0.34,3.86,1.24
			c0.81,0.84,1.22,1.94,1.22,3.43C239.66,120.04,237.5,122.08,234.02,122.08z M236.73,114.39c-0.48-0.48-1.17-0.67-2.44-0.67h-2.71
			v6.52c1.1,0.12,1.56,0.14,2.11,0.14c0.89,0,1.54-0.1,2.06-0.31c1.15-0.48,1.87-1.73,1.87-3.21
			C237.62,115.83,237.31,114.96,236.73,114.39z"/>
		<path class="st0" d="M279.37,127.88v-15.82h1.97v14.16h7.07v1.66H279.37z"/>
		<path class="st0" d="M337.8,126.87c-1.17,0.96-2.64,1.46-4.34,1.46c-1.7,0-3.19-0.5-4.36-1.46c-1.32-1.08-1.85-2.35-1.85-4.41
			v-10.4h1.96v9.8c0,1.96,0.15,2.52,0.91,3.35c0.79,0.89,1.94,1.37,3.31,1.37c1.37,0,2.52-0.48,3.31-1.37
			c0.77-0.84,0.91-1.39,0.91-3.35v-9.8h1.96v10.4C339.62,124.57,339.12,125.8,337.8,126.87z"/>
		<path class="st0" d="M388.85,114.75c-0.82-0.48-1.15-0.65-1.65-0.81c-0.6-0.19-1.56-0.34-2.18-0.34c-1.8,0-3.02,0.88-3.02,2.23
			c0,1.17,0.7,1.77,3.91,3.47c1.08,0.58,1.92,1.1,2.49,1.61c0.77,0.65,1.22,1.73,1.22,2.88c0,2.71-2.01,4.41-5.2,4.41
			c-1.08,0-2.08-0.19-2.92-0.53c-0.6-0.24-1.01-0.48-2.04-1.17l1.01-1.56c0.89,0.6,1.27,0.81,1.82,1.03
			c0.69,0.26,1.46,0.41,2.28,0.41c1.87,0,2.99-0.89,2.99-2.4c0-0.45-0.07-0.84-0.24-1.13c-0.26-0.48-0.72-0.94-1.34-1.3
			c-0.26-0.14-1.15-0.6-2.64-1.41c-2.37-1.27-3.38-2.52-3.38-4.15c0-2.52,2.08-4.19,5.22-4.19c0.91,0,1.84,0.12,2.66,0.38
			c0.65,0.22,1.03,0.41,1.92,0.93L388.85,114.75z"/>
	</g>
</g>
</svg>
